# AST/ASF file generated using VICON BodyLanguage
# -----------------------------------------------
:version 1.10
:name VICON
:units
  mass 1.0
  length 0.45
  angle deg
:documentation
   .ast/.asf automatically generated from VICON data using
   VICON BodyBuilder and BodyLanguage model FoxedUp or BRILLIANT.MOD
:root
   order TX TY TZ RX RY RZ
   axis XYZ
   position 0 0 0  
   orientation 0 0 0 
:bonedata
  begin
     id 1 
     name lhipjoint
     direction 0.646821 -0.743844 0.168282 
     length 2.62284 
     axis 0 0 0  XYZ
  end
  begin
     id 2 
     name lfemur
     direction 0.34202 -0.939693 0  
     length 7.79098  
     axis 0 0 20  XYZ
    dof rx ry rz
    limits (-160.0 20.0)
           (-70.0 70.0)
           (-60.0 70.0)
  end
  begin
     id 3 
     name ltibia
     direction 0.34202 -0.939693 0   
     length 8.1986   
     axis 0 0 20   XYZ
    dof rx
    limits (-10.0 170.0)
  end
  begin
     id 4 
     name lfoot
     direction 0.0766762 -0.210666 0.974546   
     length 1.95107   
     axis -90 7.62852e-016 20   XYZ
    dof rx rz
    limits (-45.0 90.0)
           (-70.0 20.0)
  end
  begin
     id 5 
     name ltoes
     direction 1.53582e-011 -4.21539e-011 1   
     length 0.983514   
     axis -90 7.62852e-016 20   XYZ
    dof rx
    limits (-90.0 20.0)
  end
  begin
     id 6 
     name rhipjoint
     direction -0.658967 -0.733632 0.165972   
     length 2.65935  
     axis 0 0 0  XYZ 
  end
  begin
     id 7 
     name rfemur
     direction -0.34202 -0.939693 0   
     length 7.69405   
     axis 0 0 -20   XYZ
    dof rx ry rz
    limits (-160.0 20.0)
           (-70.0 70.0)
           (-70.0 60.0)
  end
  begin
     id 8 
     name rtibia
     direction -0.34202 -0.939693 0   
     length 8.15138   
     axis 0 0 -20   XYZ
    dof rx
    limits (-10.0 170.0)
 end
 begin
     id 9 
     name rfoot
     direction -0.0806473 -0.221577 0.971802   
     length 2.09362  
     axis -90 -7.62852e-016 -20   XYZ
    dof rx rz
    limits (-45.0 90.0)
           (-20.0 70.0)
  end
  begin
     id 10 
     name rtoes
     direction -1.53524e-011 -4.2203e-011 1   
     length 1.05224   
     axis -90 -7.62852e-016 -20   XYZ
    dof rx
    limits (-90.0 20.0)
  end
  begin
     id 11 
     name lowerback
     direction -0.0484271 0.997202 0.0569433   
     length 1.86801   
     axis 0 0 0   XYZ
    dof rx ry rz
    limits (-20.0 45.0)
           (-30.0 30.0)
           (-30.0 30.0)
  end
  begin
     id 12 
     name upperback
     direction 0.0148864 0.998882 0.0448682   
     length 1.86634   
     axis 0 0 0   XYZ
    dof rx ry rz
    limits (-20.0 45.0)
           (-30.0 30.0)
           (-30.0 30.0)
  end
  begin
     id 13 
     name thorax
     direction 0.0368776 0.99918 0.0167067   
     length 1.87554   
     axis 0 0 0   XYZ
    dof rx ry rz
    limits (-20.0 45.0)
           (-30.0 30.0)
           (-30.0 30.0)
  end
  begin
     id 14 
     name lowerneck
     direction -0.0200531 0.999751 0.00976032   
     length 1.82429   
     axis 0 0 0   XYZ
    dof rx ry rz
    limits (-20.0 45.0)
           (-30.0 30.0)
           (-30.0 30.0)
  end
  begin
     id 15 
     name upperneck
     direction 0.0113135 0.99728 -0.0728357   
     length 1.79098   
     axis 0 0 0   XYZ
    dof rx ry rz
    limits (-20.0 45.0)
           (-30.0 30.0)
           (-30.0 30.0)
  end
  begin
     id 16
     name head
     direction 0.00559662 0.999607 -0.0274604  
     length 1.88003  
     axis 0 0 0   XYZ
    dof rx ry rz
    limits (-20.0 45.0)
           (-30.0 30.0)
           (-30.0 30.0)
  end
  begin
     id 17 
     name lclavicle
     direction 0.931914 0.362632 -0.00585704  
     length 3.94155  
     axis 0 0 0   XYZ
    dof ry rz
    limits (-20.0 10.0)
           (0.0 20.0)
  end
  begin
     id 18 
     name lhumerus
     direction 1 -4.48969e-011 2.13403e-027   
     length 5.77473   
     axis 180 -30 -90   XYZ
    dof rx ry rz
    limits (-60.0 90.0)
           (-90.0 90.0)
           (-90.0 90.0)
  end
  begin
     id 19
     name lradius
     direction 1 -4.48969e-011 5.41017e-027   
     length 3.53732   
     axis 180 -30 -90   XYZ
    dof rx
    limits (-10.0 170.0)
  end
  begin
     id 20
     name lwrist
     direction 1 -4.48986e-011 1.36145e-026   
     length 1.76866   
     axis -8.75986e-015 90 90   XYZ
    dof ry
    limits (-180.0 0.0)
 end
  begin
     id 21 
     name lhand
     direction 1 -4.48703e-011 2.72291e-026   
     length 0.556229   
     axis -1.73745e-014 90 90   XYZ
    dof rx rz
    limits (-90.0 90.0)
           (-45.0 45.0)
  end
  begin
     id 22 
     name lfingers
     direction 1 -4.49204e-011 5.44582e-026   
     length 0.448446   
     axis -3.4749e-014 90 90   XYZ
    dof rx
    limits (0.0 90.0)
  end
  begin
     id 23
     name lthumb
     direction 0.707107 -6.34773e-011 0.707107   
     length 0.643881   
     axis -90 45 2.85299e-015   XYZ
    dof rx rz
    limits (-45.0 45.0)
           (-45.0 45.0)
  end
  begin
     id 24 
     name rclavicle
     direction -0.951782 0.300043 0.0639076   
     length 3.96398  
     axis 0 0 0   XYZ 
    dof ry rz
    limits (-10.0 20.0)
           (-20.0 0.0)
  end
  begin
     id 25 
     name rhumerus
     direction -1 -4.48967e-011 6.14867e-028  
     length 5.79581   
     axis 180 30 90   XYZ
    dof rx ry rz
    limits (-90.0 60.0)
           (-90.0 90.0)
           (-90.0 90.0)
  end
  begin
     id 26 
     name rradius
     direction -1 -4.48966e-011 9.26908e-027   
     length 3.37412   
     axis 180 30 90   XYZ
    dof rx
    limits (-10.0 170.0)
  end
  begin
     id 27 
     name rwrist
     direction -1 -4.48999e-011 1.36145e-026   
     length 1.68706   
     axis -8.75986e-015 -90 -90   XYZ
    dof ry
    limits (-180.0 0.0)
  end
  begin
     id 28
     name rhand
     direction -1 -4.49032e-011 2.72291e-026   
     length 0.680496   
     axis -1.73745e-014 -90 -90   XYZ
    dof rx rz
    limits (-90.0 90.0)
           (-45.0 45.0)
  end
  begin
     id 29
     name rfingers
     direction -1 -4.48876e-011 5.44582e-026   
     length 0.548633   
     axis -3.4749e-014 -90 -90   XYZ
    dof rx
    limits (0.0 90.0)
  end
  begin
     id 30
     name rthumb
     direction -0.707107 -6.34964e-011 0.707107   
     length 0.787731   
     axis -90 -45 -2.85299e-015   XYZ
    dof rx rz
    limits (-45.0 45.0)
           (-45.0 45.0)
  end
:hierarchy
  begin
    root lhipjoint rhipjoint lowerback
    lhipjoint lfemur
    lfemur ltibia
    ltibia lfoot
    lfoot ltoes
    rhipjoint rfemur
    rfemur rtibia
    rtibia rfoot
    rfoot rtoes
    lowerback upperback
    upperback thorax
    thorax lowerneck lclavicle rclavicle
    lowerneck upperneck
    upperneck head
    lclavicle lhumerus
    lhumerus lradius
    lradius lwrist
    lwrist lhand lthumb
    lhand lfingers
    rclavicle rhumerus
    rhumerus rradius
    rradius rwrist
    rwrist rhand rthumb
    rhand rfingers
  end

#!OML:ASF H:\Terrain\Patient Classification 1\PaulMetrics\March1\PaulMetrics.ASF
:FULLY-SPECIFIED
:DEGREES
441
root -13.3864 18.2571 6.09491 -160.58 -20.2881 171.991
lowerback -7.31296 -2.64633 -9.11203
upperback -6.01097 -3.55087 0.103641
thorax -1.68274 -1.71033 5.00036
lowerneck -1.0713 -6.75748 -7.0357
upperneck 7.38338 -9.42932 5.58683
head 3.27485 -4.79489 2.74499
rclavicle -7.86442e-015 -2.14687e-014
rhumerus -58.7127 19.014 -93.7232
rradius 45.6987
rwrist -11.4841
rhand -11.6047 -34.0386
rfingers 7.12502
rthumb 14.4379 -63.5164
lclavicle -7.86442e-015 -2.14687e-014
lhumerus -37.6696 -12.8139 78.2158
lradius 62.7967
lwrist 11.7071
lhand -22.016 -8.06284
lfingers 7.12502
lthumb 4.39335 21.8716
rfemur -41.8693 -6.82031 27.3252
rtibia 18.645
rfoot -11.3293 -24.5748
rtoes -16.3566
lfemur -15.0564 4.40301 -28.2187
ltibia 24.2822
lfoot -27.7169 12.8786
ltoes -8.22449
442
root -13.434 18.2488 5.9719 -160.661 -19.8763 171.803
lowerback -7.2328 -2.69845 -9.04907
upperback -6.0492 -3.64118 0.0484763
thorax -1.75999 -1.75659 4.90598
lowerneck -1.80443 -7.70055 -6.46986
upperneck 8.23466 -10.5742 3.84353
head 3.62506 -5.39181 1.95766
rclavicle -3.96327e-015 -8.34896e-015
rhumerus -58.8726 18.831 -93.7555
rradius 45.83
rwrist -11.4794
rhand -11.544 -33.7786
rfingers 7.12502
rthumb 14.4964 -63.2522
lclavicle -3.96327e-015 -8.34896e-015
lhumerus -37.6495 -13.3843 78.3414
lradius 63.4875
lwrist 11.6481
lhand -21.9746 -7.24123
lfingers 7.12502
lthumb 4.43329 22.6924
rfemur -41.22 -6.64221 27.2796
rtibia 16.3226
rfoot -11.6061 -26.624
rtoes -14.5107
lfemur -14.2927 4.80003 -28.4096
ltibia 24.0306
lfoot -27.7725 12.3128
ltoes -7.62342
443
root -13.4762 18.251 5.84441 -160.859 -19.5178 171.931
lowerback -7.1576 -2.75037 -8.83657
upperback -6.06243 -3.72578 0.138148
thorax -1.80555 -1.80039 4.87914
lowerneck -0.833964 -7.34752 -6.65272
upperneck 7.22941 -10.1556 4.52132
head 3.12846 -5.17284 2.29112
rclavicle -4.80686e-014 -2.10712e-014
rhumerus -58.9656 18.7849 -93.8391
rradius 45.9167
rwrist -11.4063
rhand -11.5016 -33.6261
rfingers 7.12502
rthumb 14.5373 -63.0967
lclavicle -4.80686e-014 -2.10712e-014
lhumerus -37.6164 -13.8789 78.4629
lradius 64.0834
lwrist 11.6604
lhand -21.9252 -7.12905
lfingers 7.12502
lthumb 4.48102 22.8035
rfemur -40.6026 -6.40931 27.6564
rtibia 14.2842
rfoot -10.4128 -29.234
rtoes -16.8958
lfemur -13.5176 5.2544 -28.2275
ltibia 23.7178
lfoot -27.2949 12.0046
ltoes -7.82802
444
root -13.5178 18.2459 5.71817 -160.809 -18.9928 171.74
lowerback -7.2447 -2.83408 -8.90466
upperback -6.08665 -3.83362 0.158303
thorax -1.7634 -1.85648 4.92622
lowerneck -0.401072 -7.32246 -6.84709
upperneck 6.69023 -10.1262 4.71297
head 2.88834 -5.15761 2.41513
rclavicle 5.99087e-014 2.14687e-014
rhumerus -59.0512 18.8536 -93.9839
rradius 46.036
rwrist -11.439
rhand -11.8924 -33.7521
rfingers 7.12502
rthumb 14.1607 -63.2495
lclavicle 5.99087e-014 2.14687e-014
lhumerus -37.5901 -14.0862 78.5124
lradius 64.7004
lwrist 11.665
lhand -21.5035 -7.33063
lfingers 7.12502
lthumb 4.88818 22.593
rfemur -40.2274 -6.12004 27.6222
rtibia 12.555
rfoot -10.0999 -31.4822
rtoes -16.6276
lfemur -12.8362 5.76526 -28.4363
ltibia 23.3504
lfoot -26.5853 11.8802
ltoes -9.03769
445
root -13.5591 18.2308 5.58915 -160.661 -18.4024 171.446
lowerback -7.52001 -2.92201 -8.99556
upperback -6.17045 -3.94479 0.118212
thorax -1.68374 -1.921 4.91422
lowerneck -0.115431 -7.39587 -7.19304
upperneck 6.5163 -10.2464 4.92043
head 2.82245 -5.22475 2.55377
rclavicle 1.53685e-014 1.98785e-014
rhumerus -59.3501 18.8428 -94.1264
rradius 46.282
rwrist -11.58
rhand -12.0336 -33.6425
rfingers 7.12502
rthumb 14.0246 -63.1493
lclavicle 1.53685e-014 1.98785e-014
lhumerus -37.5946 -14.1417 78.5569
lradius 65.1314
lwrist 11.2875
lhand -21.4089 -7.79915
lfingers 7.12502
lthumb 4.9795 22.1223
rfemur -39.9232 -5.18258 26.9656
rtibia 11.207
rfoot -12.0677 -33.9506
rtoes -11.0839
lfemur -12.2358 6.27055 -28.8164
ltibia 23.0007
lfoot -25.8748 12.1371
ltoes -12.1619
446
root -13.5976 18.2039 5.45745 -160.645 -17.917 171.269
lowerback -7.59273 -3.00297 -9.02514
upperback -6.28865 -4.06959 0.125719
thorax -1.74968 -1.98445 4.92901
lowerneck -0.24617 -7.50774 -7.45461
upperneck 6.86147 -10.4136 4.95188
head 2.99618 -5.31901 2.59257
rclavicle 9.62863e-016 -9.93923e-015
rhumerus -59.6974 18.7435 -94.2197
rradius 46.4096
rwrist -11.5966
rhand -11.6949 -33.1301
rfingers 7.12502
rthumb 14.351 -62.6141
lclavicle 9.62863e-016 -9.93923e-015
lhumerus -37.6027 -14.227 78.7353
lradius 65.345
lwrist 10.3603
lhand -22.329 -8.07912
lfingers 7.12502
lthumb 4.09106 21.8613
rfemur -39.4082 -5.36629 27.3492
rtibia 9.62017
rfoot -13.6717 -35.0628
rtoes -4.89899
lfemur -11.8176 6.99072 -29.0863
ltibia 22.9937
lfoot -24.6364 13.178
ltoes -19.4947
447
root -13.6347 18.1568 5.32803 -160.612 -17.3745 170.948
lowerback -7.60459 -3.03617 -9.215
upperback -6.27392 -4.10557 0.0953541
thorax -1.7159 -2.00056 4.9988
lowerneck -0.806787 -7.72605 -7.58005
upperneck 7.27165 -10.6707 4.78114
head 3.25662 -5.44928 2.51565
rclavicle -7.02455e-014 -2.0276e-014
rhumerus -59.6873 18.6389 -94.2682
rradius 46.3225
rwrist -11.4462
rhand -11.6396 -32.7377
rfingers 7.12502
rthumb 14.4043 -62.2179
lclavicle -7.02455e-014 -2.0276e-014
lhumerus -37.4618 -14.4758 78.902
lradius 65.7526
lwrist 9.56671
lhand -22.9987 -7.91336
lfingers 7.12502
lthumb 3.44438 22.0386
rfemur -38.9435 -5.64257 27.4646
rtibia 8.18327
rfoot -14.9961 -36.0384
rtoes 0.184811
lfemur -11.4996 8.04234 -29.571
ltibia 22.9572
lfoot -21.9953 15.3253
ltoes -32.1495
448
root -13.6652 18.1707 5.19196 -160.698 -16.8541 170.722
lowerback -7.64903 -3.03265 -9.2858
upperback -6.15815 -4.07548 0.0790351
thorax -1.57043 -1.98948 5.01636
lowerneck -1.05202 -7.89199 -7.70742
upperneck 7.12498 -10.8559 4.83212
head 3.2784 -5.53277 2.53767
rclavicle 1.14301e-015 4.37326e-015
rhumerus -59.4584 18.5288 -94.2605
rradius 46.1792
rwrist -11.3124
rhand -11.6037 -32.8791
rfingers 7.12502
rthumb 14.4389 -62.3568
lclavicle 1.14301e-015 4.37326e-015
lhumerus -37.2126 -14.8073 78.9946
lradius 66.1207
lwrist 9.17885
lhand -23.1639 -8.66861
lfingers 7.12502
lthumb 3.2848 21.2858
rfemur -38.4169 -5.94607 27.6328
rtibia 7.23422
rfoot -16.9069 -36.7111
rtoes 5.46843
lfemur -10.4623 7.05885 -29.4571
ltibia 23.0114
lfoot -24.768 11.5557
ltoes -13.9217
449
root -13.6978 18.1689 5.04784 -160.966 -16.3506 170.661
lowerback -7.58379 -3.0324 -9.16095
upperback -6.11132 -4.07897 0.103281
thorax -1.55969 -1.99344 4.97373
lowerneck -0.986095 -7.98558 -7.74752
upperneck 6.93063 -10.9664 4.76785
head 3.20489 -5.58728 2.52292
rclavicle -4.15708e-014 -1.59028e-015
rhumerus -59.4157 18.499 -94.3167
rradius 45.9963
rwrist -11.2002
rhand -11.4135 -32.8644
rfingers 7.12502
rthumb 14.6222 -62.3289
lclavicle -4.15708e-014 -1.59028e-015
lhumerus -37.113 -15.0371 79.1438
lradius 66.1865
lwrist 8.99941
lhand -23.456 -9.67804
lfingers 7.12502
lthumb 3.00271 20.2806
rfemur -38.1157 -6.14079 28.0529
rtibia 7.22369
rfoot -18.2452 -37.6037
rtoes 9.26333
lfemur -9.73889 7.67062 -29.4406
ltibia 23.0145
lfoot -23.8183 11.6628
ltoes -16.712
450
root -13.7342 18.1635 4.90544 -161.077 -15.8556 170.407
lowerback -7.64817 -3.06526 -9.13714
upperback -6.11598 -4.12495 0.0400203
thorax -1.52814 -2.02263 4.88685
lowerneck -0.986711 -8.09914 -7.59954
upperneck 6.94111 -11.0967 4.3941
head 3.1783 -5.6579 2.36458
rclavicle 1.53934e-014 -3.02153e-014
rhumerus -59.5794 18.4234 -94.5068
rradius 45.8827
rwrist -11.113
rhand -11.486 -32.6901
rfingers 7.12502
rthumb 14.5523 -62.1597
lclavicle 1.53934e-014 -3.02153e-014
lhumerus -37.1792 -15.2863 79.3002
lradius 66.3202
lwrist 8.94004
lhand -23.6369 -9.72517
lfingers 7.12502
lthumb 2.82807 20.2358
rfemur -37.983 -6.43462 28.2588
rtibia 7.41075
rfoot -18.0541 -38.7533
rtoes 11.67
lfemur -9.11235 8.18784 -29.612
ltibia 23.1893
lfoot -23.5164 11.104
ltoes -16.2289
